<svg xmlns="http://www.w3.org/2000/svg" xmlns:xlink="http://www.w3.org/1999/xlink" width="250" zoomAndPan="magnify" viewBox="0 0 375 67.499998" height="90" preserveAspectRatio="xMidYMid meet" version="1.0"><defs><g/><clipPath id="b068270b55"><path d="M 1.378906 2.328125 L 51 2.328125 L 51 64 L 1.378906 64 Z M 1.378906 2.328125 " clip-rule="nonzero"/></clipPath><clipPath id="3de1f76b6f"><path d="M 39 4 L 82.527344 4 L 82.527344 62 L 39 62 Z M 39 4 " clip-rule="nonzero"/></clipPath></defs><g clip-path="url(#b068270b55)"><path fill="#ffffff" d="M 46.535156 42.945312 L 39.675781 36.441406 C 39.675781 36.441406 44.457031 24.511719 46.535156 20.777344 C 47.425781 19.179688 48.488281 17.074219 49.101562 14.746094 C 49.15625 14.757812 49.210938 14.761719 49.265625 14.761719 C 50.164062 14.761719 50.886719 13.453125 50.886719 11.84375 C 50.886719 10.628906 50.480469 9.589844 49.894531 9.148438 C 49.894531 9.148438 49.082031 9.75 49.03125 10.925781 C 49.03125 10.925781 48.804688 9.644531 49.828125 8.546875 C 49.652344 7.253906 49.339844 6.496094 48.574219 5.5625 C 47.207031 3.910156 45.121094 3.359375 41.953125 3.214844 C 38.980469 3.074219 36.839844 2.722656 34.324219 2.449219 C 33.457031 2.351562 33.828125 4.023438 34.0625 4.425781 C 34.527344 5.242188 35.191406 5.511719 37.558594 6.210938 C 37.558594 6.210938 35.664062 6.207031 33.730469 5.117188 C 33.289062 5.910156 33.046875 6.957031 32.964844 8.144531 C 34.515625 9.753906 34.183594 11.660156 34.183594 11.660156 C 34.105469 9.957031 32.929688 9.085938 32.929688 9.085938 C 32.300781 9.488281 31.847656 10.570312 31.847656 11.84375 C 31.847656 13.453125 32.574219 14.761719 33.46875 14.761719 C 33.554688 14.761719 33.640625 14.75 33.722656 14.726562 C 34.421875 17.398438 35.519531 19.898438 36.742188 21.382812 C 36.09375 22.011719 35.476562 22.609375 34.898438 23.0625 C 38.535156 22.894531 41.367188 25.421875 41.367188 25.421875 C 41.367188 25.421875 36.332031 22.347656 32.433594 24.609375 C 27.03125 27.742188 21.167969 25.421875 21.167969 25.421875 C 21.167969 25.421875 26.464844 26.378906 32.074219 23.761719 C 32.191406 23.707031 32.3125 23.652344 32.433594 23.605469 C 29.496094 22.46875 26.769531 20.761719 19.671875 24.222656 C 19.671875 24.222656 17.832031 24.996094 16.78125 26.632812 C 16.78125 26.632812 17.066406 25.144531 18.671875 23.800781 C 17.265625 23.300781 14.613281 22.695312 12.332031 24.085938 C 12.332031 24.085938 10.492188 24.863281 9.4375 26.5 C 9.4375 26.5 10.238281 24.507812 12.472656 23.058594 C 12.8125 21.035156 13.855469 16.476562 16.730469 13.679688 C 16.863281 13.546875 16.984375 13.433594 17.101562 13.335938 C 16.179688 13.507812 15.433594 13.875 15.433594 13.875 C 16.929688 12.480469 18.269531 13.042969 19.25 12.957031 C 20.40625 12.859375 21.792969 13.453125 22.5 13.347656 C 23.449219 13.207031 24.941406 13.042969 25.308594 12.839844 C 26.328125 12.265625 25.628906 11.09375 24.828125 11.058594 C 23.78125 11.007812 26.753906 11.089844 26.671875 9.882812 C 26.542969 8.015625 26.753906 7.421875 26.207031 6.6875 C 25.957031 6.359375 23.453125 4.074219 22.683594 4.074219 C 20.605469 4.082031 17.433594 6.03125 15.730469 6.800781 C 14.289062 7.453125 13.625 8.769531 12.988281 9.808594 C 11.777344 11.796875 1.378906 24.792969 1.484375 28.730469 C 1.601562 33.011719 10.03125 37.421875 18.578125 34.5625 C 18.578125 34.5625 20.609375 33.617188 21.738281 32.773438 C 21.738281 32.773438 20.519531 34.191406 19.015625 35.132812 C 19.5 35.746094 20.070312 36.546875 20.707031 37.472656 C 22.738281 40.027344 26.480469 44.023438 31.308594 46.003906 C 31.308594 46.003906 28.722656 45.683594 25.132812 44.246094 C 25.941406 45.515625 26.753906 46.804688 27.542969 48.050781 C 28.507812 49.578125 29.753906 50.914062 31.230469 51.953125 C 32.492188 52.847656 33.875 53.648438 35.363281 54.257812 C 35.363281 54.257812 33.5 54.027344 30.742188 53.078125 C 31.578125 54.367188 32.28125 55.414062 32.773438 56.070312 C 33.988281 57.6875 35.976562 59.199219 35.441406 63.964844 L 46.535156 42.945312 " fill-opacity="1" fill-rule="nonzero"/></g><g clip-path="url(#3de1f76b6f)"><path fill="#f15a24" d="M 70.917969 9.808594 C 70.28125 8.769531 69.617188 7.453125 68.175781 6.800781 C 66.472656 6.03125 63.300781 4.082031 61.222656 4.074219 C 60.453125 4.074219 57.945312 6.359375 57.699219 6.6875 C 57.152344 7.421875 57.363281 8.015625 57.234375 9.882812 C 57.152344 11.089844 60.125 11.007812 59.078125 11.058594 C 58.277344 11.09375 57.578125 12.265625 58.597656 12.839844 C 58.964844 13.042969 60.457031 13.207031 61.40625 13.347656 C 62.113281 13.453125 63.5 12.859375 64.65625 12.957031 C 65.636719 13.042969 66.976562 12.480469 68.472656 13.875 C 68.472656 13.875 67.726562 13.507812 66.804688 13.335938 C 66.917969 13.433594 67.042969 13.546875 67.175781 13.679688 C 70.050781 16.476562 71.09375 21.035156 71.433594 23.058594 C 73.667969 24.507812 74.464844 26.5 74.464844 26.5 C 73.414062 24.863281 71.574219 24.085938 71.574219 24.085938 C 69.292969 22.695312 66.640625 23.300781 65.234375 23.800781 C 66.839844 25.144531 67.125 26.632812 67.125 26.632812 C 66.074219 24.996094 64.234375 24.222656 64.234375 24.222656 C 61.0625 22.675781 58.765625 22.160156 56.929688 22.167969 L 55.515625 24.679688 C 60.15625 26.121094 64.039062 25.421875 64.039062 25.421875 C 64.039062 25.421875 59.667969 27.148438 54.996094 25.605469 L 49.332031 35.675781 L 55.300781 41.417969 L 39.402344 59.519531 C 39.402344 59.519531 51.226562 64.847656 59.332031 59.808594 C 53.890625 54.808594 53.351562 52.34375 54.121094 49.578125 C 55.164062 45.824219 61.570312 35.90625 61.570312 35.90625 C 70.113281 38.765625 82.304688 33.011719 82.421875 28.730469 C 82.527344 24.792969 72.128906 11.796875 70.917969 9.808594 " fill-opacity="1" fill-rule="nonzero"/></g><g fill="#ffffff" fill-opacity="1"><g transform="translate(92.367047, 43.112646)"><g><path d="M 17.640625 -10.46875 C 18.828125 -10.03125 19.742188 -9.390625 20.390625 -8.546875 C 21.035156 -7.710938 21.359375 -6.703125 21.359375 -5.515625 C 21.359375 -3.765625 20.632812 -2.40625 19.1875 -1.4375 C 17.738281 -0.476562 15.640625 0 12.890625 0 L 1.625 0 L 1.625 -20.015625 L 12.328125 -20.015625 C 14.992188 -20.015625 17.007812 -19.535156 18.375 -18.578125 C 19.738281 -17.628906 20.421875 -16.363281 20.421875 -14.78125 C 20.421875 -13.84375 20.1875 -13.003906 19.71875 -12.265625 C 19.25 -11.523438 18.554688 -10.925781 17.640625 -10.46875 Z M 8.265625 -15.296875 L 8.265625 -12.328125 L 11.40625 -12.328125 C 12.875 -12.328125 13.609375 -12.820312 13.609375 -13.8125 C 13.609375 -14.800781 12.875 -15.296875 11.40625 -15.296875 Z M 12.328125 -4.71875 C 13.804688 -4.71875 14.546875 -5.242188 14.546875 -6.296875 C 14.546875 -7.335938 13.804688 -7.859375 12.328125 -7.859375 L 8.265625 -7.859375 L 8.265625 -4.71875 Z M 12.328125 -4.71875 "/></g></g></g><g fill="#ffffff" fill-opacity="1"><g transform="translate(119.348966, 43.112646)"><g><path d="M 18.265625 -5.09375 L 18.265625 0 L 1.625 0 L 1.625 -20.015625 L 17.90625 -20.015625 L 17.90625 -14.921875 L 8.265625 -14.921875 L 8.265625 -12.578125 L 16.734375 -12.578125 L 16.734375 -7.71875 L 8.265625 -7.71875 L 8.265625 -5.09375 Z M 18.265625 -5.09375 "/></g></g></g><g fill="#ffffff" fill-opacity="1"><g transform="translate(143.472936, 43.112646)"><g/></g></g><g fill="#ffffff" fill-opacity="1"><g transform="translate(156.936749, 43.112646)"><g><path d="M 18.265625 -5.09375 L 18.265625 0 L 1.625 0 L 1.625 -20.015625 L 17.90625 -20.015625 L 17.90625 -14.921875 L 8.265625 -14.921875 L 8.265625 -12.578125 L 16.734375 -12.578125 L 16.734375 -7.71875 L 8.265625 -7.71875 L 8.265625 -5.09375 Z M 18.265625 -5.09375 "/></g></g></g><g fill="#ffffff" fill-opacity="1"><g transform="translate(181.060719, 43.112646)"><g><path d="M 21.359375 -20.015625 L 21.359375 0 L 15.8125 0 L 8.203125 -9.09375 L 8.203125 0 L 1.625 0 L 1.625 -20.015625 L 7.171875 -20.015625 L 14.78125 -10.921875 L 14.78125 -20.015625 Z M 21.359375 -20.015625 "/></g></g></g><g fill="#ffffff" fill-opacity="1"><g transform="translate(208.9286, 43.112646)"><g><path d="M 18.265625 -5.09375 L 18.265625 0 L 1.625 0 L 1.625 -20.015625 L 17.90625 -20.015625 L 17.90625 -14.921875 L 8.265625 -14.921875 L 8.265625 -12.578125 L 16.734375 -12.578125 L 16.734375 -7.71875 L 8.265625 -7.71875 L 8.265625 -5.09375 Z M 18.265625 -5.09375 "/></g></g></g><g fill="#ffffff" fill-opacity="1"><g transform="translate(233.05257, 43.112646)"><g><path d="M 10.203125 -5.03125 L 8.375 -5.03125 L 8.375 0 L 1.625 0 L 1.625 -20.015625 L 11.265625 -20.015625 C 13.117188 -20.015625 14.726562 -19.707031 16.09375 -19.09375 C 17.46875 -18.488281 18.523438 -17.613281 19.265625 -16.46875 C 20.015625 -15.320312 20.390625 -13.988281 20.390625 -12.46875 C 20.390625 -11.039062 20.0625 -9.789062 19.40625 -8.71875 C 18.757812 -7.65625 17.828125 -6.804688 16.609375 -6.171875 L 20.8125 0 L 13.609375 0 Z M 13.578125 -12.46875 C 13.578125 -13.207031 13.347656 -13.78125 12.890625 -14.1875 C 12.429688 -14.601562 11.75 -14.8125 10.84375 -14.8125 L 8.375 -14.8125 L 8.375 -10.125 L 10.84375 -10.125 C 11.75 -10.125 12.429688 -10.328125 12.890625 -10.734375 C 13.347656 -11.148438 13.578125 -11.726562 13.578125 -12.46875 Z M 13.578125 -12.46875 "/></g></g></g><g fill="#ffffff" fill-opacity="1"><g transform="translate(259.234262, 43.112646)"><g><path d="M 14.875 -10.546875 L 20.734375 -10.546875 L 20.734375 -2.09375 C 19.546875 -1.269531 18.171875 -0.640625 16.609375 -0.203125 C 15.046875 0.234375 13.515625 0.453125 12.015625 0.453125 C 9.878906 0.453125 7.960938 0.0078125 6.265625 -0.875 C 4.566406 -1.757812 3.234375 -3 2.265625 -4.59375 C 1.304688 -6.1875 0.828125 -7.992188 0.828125 -10.015625 C 0.828125 -12.023438 1.304688 -13.828125 2.265625 -15.421875 C 3.234375 -17.015625 4.578125 -18.253906 6.296875 -19.140625 C 8.023438 -20.023438 9.976562 -20.46875 12.15625 -20.46875 C 14.113281 -20.46875 15.867188 -20.140625 17.421875 -19.484375 C 18.984375 -18.828125 20.273438 -17.867188 21.296875 -16.609375 L 16.984375 -12.8125 C 15.722656 -14.28125 14.226562 -15.015625 12.5 -15.015625 C 11.007812 -15.015625 9.828125 -14.566406 8.953125 -13.671875 C 8.078125 -12.773438 7.640625 -11.554688 7.640625 -10.015625 C 7.640625 -8.503906 8.070312 -7.289062 8.9375 -6.375 C 9.800781 -5.457031 10.957031 -5 12.40625 -5 C 13.269531 -5 14.09375 -5.160156 14.875 -5.484375 Z M 14.875 -10.546875 "/></g></g></g><g fill="#ffffff" fill-opacity="1"><g transform="translate(286.101856, 43.112646)"><g><path d="M 18.265625 -5.09375 L 18.265625 0 L 1.625 0 L 1.625 -20.015625 L 17.90625 -20.015625 L 17.90625 -14.921875 L 8.265625 -14.921875 L 8.265625 -12.578125 L 16.734375 -12.578125 L 16.734375 -7.71875 L 8.265625 -7.71875 L 8.265625 -5.09375 Z M 18.265625 -5.09375 "/></g></g></g><g fill="#ffffff" fill-opacity="1"><g transform="translate(310.225826, 43.112646)"><g><path d="M 5.96875 -14.78125 L 0.109375 -14.78125 L 0.109375 -20.015625 L 18.59375 -20.015625 L 18.59375 -14.78125 L 12.71875 -14.78125 L 12.71875 0 L 5.96875 0 Z M 5.96875 -14.78125 "/></g></g></g><g fill="#ffffff" fill-opacity="1"><g transform="translate(333.806776, 43.112646)"><g><path d="M 1.625 -20.015625 L 8.375 -20.015625 L 8.375 0 L 1.625 0 Z M 1.625 -20.015625 "/></g></g></g><g fill="#ffffff" fill-opacity="1"><g transform="translate(348.699572, 43.112646)"><g><path d="M 11.984375 0.453125 C 9.867188 0.453125 7.960938 0.0078125 6.265625 -0.875 C 4.566406 -1.757812 3.234375 -3 2.265625 -4.59375 C 1.304688 -6.1875 0.828125 -7.992188 0.828125 -10.015625 C 0.828125 -12.023438 1.304688 -13.828125 2.265625 -15.421875 C 3.234375 -17.015625 4.566406 -18.253906 6.265625 -19.140625 C 7.960938 -20.023438 9.867188 -20.46875 11.984375 -20.46875 C 13.921875 -20.46875 15.648438 -20.125 17.171875 -19.4375 C 18.703125 -18.757812 19.960938 -17.769531 20.953125 -16.46875 L 16.703125 -12.671875 C 15.460938 -14.234375 14.003906 -15.015625 12.328125 -15.015625 C 10.910156 -15.015625 9.773438 -14.5625 8.921875 -13.65625 C 8.066406 -12.75 7.640625 -11.535156 7.640625 -10.015625 C 7.640625 -8.484375 8.066406 -7.265625 8.921875 -6.359375 C 9.773438 -5.453125 10.910156 -5 12.328125 -5 C 14.003906 -5 15.460938 -5.78125 16.703125 -7.34375 L 20.953125 -3.546875 C 19.960938 -2.242188 18.703125 -1.25 17.171875 -0.5625 C 15.648438 0.113281 13.921875 0.453125 11.984375 0.453125 Z M 11.984375 0.453125 "/></g></g></g></svg>